<?xml version="1.0" encoding="UTF-8"?>
<svg xmlns="http://www.w3.org/2000/svg" xmlns:xlink="http://www.w3.org/1999/xlink" width="176px" height="176px" viewBox="0 0 176 176" version="1.1">
<g id="surface1">
<path style=" stroke:none;fill-rule:nonzero;fill:rgb(52.941176%,47.45098%,43.529412%);fill-opacity:1;" d="M 161.457031 140.511719 L 14.542969 140.511719 C 12.6875 140.511719 11.179688 142.019531 11.179688 143.875 C 11.179688 145.734375 12.6875 147.242188 14.542969 147.242188 L 161.457031 147.242188 C 163.316406 147.242188 164.820312 145.734375 164.820312 143.875 C 164.820312 142.019531 163.316406 140.511719 161.457031 140.511719 Z M 161.457031 140.511719 "/>
<path style=" stroke:none;fill-rule:nonzero;fill:rgb(22.745098%,19.215686%,16.470588%);fill-opacity:1;" d="M 161.457031 139.480469 L 14.542969 139.480469 C 12.121094 139.480469 10.148438 141.453125 10.148438 143.875 C 10.148438 146.300781 12.121094 148.273438 14.542969 148.273438 L 87.644531 148.273438 C 88.214844 148.273438 88.675781 147.8125 88.675781 147.242188 C 88.675781 146.671875 88.214844 146.210938 87.644531 146.210938 L 14.542969 146.210938 C 13.257812 146.210938 12.210938 145.164062 12.210938 143.875 C 12.210938 142.589844 13.257812 141.542969 14.542969 141.542969 L 161.457031 141.542969 C 162.742188 141.542969 163.789062 142.589844 163.789062 143.875 C 163.789062 145.164062 162.742188 146.210938 161.457031 146.210938 L 97.0625 146.210938 C 96.492188 146.210938 96.03125 146.671875 96.03125 147.242188 C 96.03125 147.8125 96.492188 148.273438 97.0625 148.273438 L 161.457031 148.273438 C 163.878906 148.273438 165.851562 146.300781 165.851562 143.875 C 165.851562 141.453125 163.882812 139.480469 161.457031 139.480469 Z M 161.457031 139.480469 "/>
<path style=" stroke:none;fill-rule:nonzero;fill:rgb(97.647059%,28.235294%,70.588235%);fill-opacity:1;" d="M 32.90625 17.609375 C 32.238281 25.558594 23.953125 26.816406 23.953125 26.816406 C 31.066406 27.148438 32.839844 36.480469 32.839844 36.480469 C 32.992188 29.828125 41.996094 26.714844 41.996094 26.714844 C 35.25 26.3125 32.90625 17.609375 32.90625 17.609375 Z M 32.90625 17.609375 "/>
<path style=" stroke:none;fill-rule:nonzero;fill:rgb(22.745098%,19.215686%,16.470588%);fill-opacity:1;" d="M 42.058594 25.6875 C 36.144531 25.332031 33.925781 17.417969 33.902344 17.339844 C 33.773438 16.855469 33.308594 16.539062 32.816406 16.582031 C 32.316406 16.628906 31.921875 17.023438 31.878906 17.523438 C 31.289062 24.546875 24.101562 25.746094 23.800781 25.796875 C 23.273438 25.875 22.898438 26.339844 22.925781 26.867188 C 22.953125 27.398438 23.375 27.820312 23.90625 27.84375 C 30.113281 28.136719 31.8125 36.589844 31.828125 36.675781 C 31.921875 37.164062 32.347656 37.511719 32.839844 37.511719 C 32.867188 37.511719 32.898438 37.511719 32.925781 37.507812 C 33.453125 37.464844 33.859375 37.03125 33.871094 36.503906 C 34.003906 30.652344 42.253906 27.71875 42.335938 27.691406 C 42.800781 27.527344 43.085938 27.0625 43.019531 26.574219 C 42.953125 26.085938 42.550781 25.714844 42.058594 25.6875 Z M 32.734375 32.800781 C 31.800781 30.648438 30.183594 28.050781 27.515625 26.695312 C 29.53125 25.730469 31.921875 24.007812 33.15625 21.007812 C 34.222656 23.121094 36.042969 25.738281 38.886719 27.003906 C 36.816406 28.132812 34.125 30.035156 32.734375 32.800781 Z M 32.734375 32.800781 "/>
<path style=" stroke:none;fill-rule:nonzero;fill:rgb(97.647059%,28.235294%,70.588235%);fill-opacity:1;" d="M 17.988281 29.285156 C 17.515625 34.90625 11.65625 35.792969 11.65625 35.792969 C 16.6875 36.03125 17.941406 42.632812 17.941406 42.632812 C 18.050781 37.925781 24.417969 35.726562 24.417969 35.726562 C 19.648438 35.4375 17.988281 29.285156 17.988281 29.285156 Z M 17.988281 29.285156 "/>
<path style=" stroke:none;fill-rule:nonzero;fill:rgb(22.745098%,19.215686%,16.470588%);fill-opacity:1;" d="M 24.480469 34.695312 C 20.515625 34.457031 19 29.066406 18.984375 29.011719 C 18.855469 28.53125 18.398438 28.210938 17.898438 28.253906 C 17.398438 28.300781 17.003906 28.695312 16.960938 29.195312 C 16.566406 33.917969 11.707031 34.742188 11.503906 34.773438 C 10.976562 34.851562 10.601562 35.316406 10.628906 35.847656 C 10.65625 36.375 11.078125 36.800781 11.609375 36.824219 C 15.757812 37.019531 16.917969 42.765625 16.929688 42.824219 C 17.023438 43.3125 17.453125 43.664062 17.941406 43.664062 C 17.96875 43.664062 18 43.660156 18.027344 43.660156 C 18.554688 43.617188 18.960938 43.183594 18.972656 42.65625 C 19.0625 38.730469 24.703125 36.71875 24.757812 36.699219 C 25.222656 36.539062 25.507812 36.070312 25.441406 35.585938 C 25.375 35.097656 24.972656 34.722656 24.480469 34.695312 Z M 17.890625 39.367188 C 17.257812 38.070312 16.28125 36.652344 14.835938 35.738281 C 16.109375 35.019531 17.375 33.929688 18.183594 32.355469 C 18.910156 33.644531 20.007812 35.074219 21.578125 35.949219 C 20.308594 36.703125 18.835938 37.832031 17.890625 39.367188 Z M 17.890625 39.367188 "/>
<path style=" stroke:none;fill-rule:nonzero;fill:rgb(97.647059%,28.235294%,70.588235%);fill-opacity:1;" d="M 17.988281 10.957031 C 17.515625 16.578125 11.65625 17.46875 11.65625 17.46875 C 16.6875 17.703125 17.941406 24.304688 17.941406 24.304688 C 18.050781 19.597656 24.417969 17.398438 24.417969 17.398438 C 19.648438 17.113281 17.988281 10.957031 17.988281 10.957031 Z M 17.988281 10.957031 "/>
<path style=" stroke:none;fill-rule:nonzero;fill:rgb(22.745098%,19.215686%,16.470588%);fill-opacity:1;" d="M 24.480469 16.367188 C 20.515625 16.128906 19 10.742188 18.984375 10.6875 C 18.855469 10.203125 18.398438 9.882812 17.898438 9.929688 C 17.398438 9.972656 17.003906 10.371094 16.960938 10.867188 C 16.5625 15.59375 11.707031 16.414062 11.5 16.445312 C 10.976562 16.527344 10.597656 16.988281 10.625 17.519531 C 10.652344 18.050781 11.078125 18.472656 11.609375 18.496094 C 15.757812 18.691406 16.917969 24.441406 16.929688 24.496094 C 17.019531 24.984375 17.449219 25.335938 17.941406 25.335938 C 17.96875 25.335938 17.996094 25.332031 18.027344 25.332031 C 18.550781 25.289062 18.960938 24.855469 18.972656 24.328125 C 19.0625 20.402344 24.699219 18.390625 24.753906 18.371094 C 25.21875 18.210938 25.507812 17.746094 25.441406 17.257812 C 25.375 16.769531 24.972656 16.398438 24.480469 16.367188 Z M 17.890625 21.039062 C 17.257812 19.742188 16.28125 18.328125 14.835938 17.410156 C 16.109375 16.695312 17.375 15.601562 18.183594 14.03125 C 18.910156 15.316406 20.007812 16.75 21.578125 17.621094 C 20.308594 18.378906 18.835938 19.503906 17.890625 21.039062 Z M 17.890625 21.039062 "/>
<path style=" stroke:none;fill-rule:nonzero;fill:rgb(97.647059%,28.235294%,70.588235%);fill-opacity:1;" d="M 112.085938 55.6875 L 38.257812 55.6875 C 33.8125 55.6875 29.578125 59.292969 28.792969 63.734375 L 18.246094 123.40625 L 108.15625 123.40625 L 118.703125 63.734375 C 119.488281 59.292969 116.527344 55.6875 112.085938 55.6875 Z M 112.085938 55.6875 "/>
<path style=" stroke:none;fill-rule:nonzero;fill:rgb(22.745098%,19.215686%,16.470588%);fill-opacity:1;" d="M 118.105469 57.335938 C 116.65625 55.609375 114.519531 54.65625 112.085938 54.65625 L 91.347656 54.65625 C 90.777344 54.65625 90.316406 55.117188 90.316406 55.6875 C 90.316406 56.257812 90.777344 56.71875 91.347656 56.71875 L 112.085938 56.71875 C 113.898438 56.71875 115.476562 57.410156 116.527344 58.660156 C 117.605469 59.949219 118.019531 61.6875 117.6875 63.554688 L 107.292969 122.375 L 19.476562 122.375 L 29.808594 63.914062 C 30.511719 59.945312 34.300781 56.71875 38.257812 56.71875 L 81.902344 56.71875 C 82.472656 56.71875 82.933594 56.257812 82.933594 55.6875 C 82.933594 55.117188 82.472656 54.65625 81.902344 54.65625 L 38.257812 54.65625 C 33.347656 54.65625 28.644531 58.648438 27.777344 63.554688 L 17.230469 123.226562 C 17.179688 123.527344 17.261719 123.835938 17.457031 124.070312 C 17.652344 124.300781 17.941406 124.4375 18.246094 124.4375 L 108.15625 124.4375 C 108.660156 124.4375 109.085938 124.078125 109.171875 123.585938 L 119.71875 63.914062 C 120.15625 61.433594 119.585938 59.097656 118.105469 57.335938 Z M 118.105469 57.335938 "/>
<path style=" stroke:none;fill-rule:nonzero;fill:rgb(15.294118%,63.921569%,100%);fill-opacity:1;" d="M 158.816406 81.703125 C 152.480469 73.347656 142.277344 68.125 129.9375 68.125 L 117.929688 68.125 L 108.15625 123.410156 L 18.246094 123.410156 L 15.222656 140.511719 L 159.972656 140.511719 L 161.957031 129.289062 L 165.199219 110.957031 C 165.242188 110.703125 165.285156 110.457031 165.324219 110.203125 C 167.082031 99.1875 164.5 89.1875 158.816406 81.703125 Z M 158.816406 81.703125 "/>
<path style=" stroke:none;fill-rule:nonzero;fill:rgb(22.745098%,19.215686%,16.470588%);fill-opacity:1;" d="M 159.636719 81.082031 C 152.898438 72.191406 142.074219 67.09375 129.9375 67.09375 L 117.929688 67.09375 C 117.429688 67.09375 117 67.453125 116.914062 67.945312 L 107.292969 122.378906 L 18.246094 122.378906 C 17.746094 122.378906 17.316406 122.738281 17.230469 123.230469 L 14.207031 140.332031 C 14.15625 140.632812 14.238281 140.941406 14.433594 141.171875 C 14.628906 141.40625 14.917969 141.542969 15.222656 141.542969 L 159.972656 141.542969 C 160.476562 141.542969 160.902344 141.183594 160.988281 140.691406 L 166.214844 111.136719 C 166.261719 110.875 166.304688 110.617188 166.34375 110.363281 C 168.082031 99.464844 165.703125 89.0625 159.636719 81.082031 Z M 164.304688 110.046875 C 164.269531 110.292969 164.226562 110.53125 164.183594 110.777344 L 159.109375 139.480469 L 16.453125 139.480469 L 19.113281 124.441406 L 108.15625 124.441406 C 108.660156 124.441406 109.085938 124.082031 109.171875 123.589844 L 118.792969 69.15625 L 129.9375 69.15625 C 141.589844 69.15625 151.554688 73.832031 157.992188 82.328125 C 163.714844 89.859375 165.957031 99.699219 164.304688 110.046875 Z M 164.304688 110.046875 "/>
<path style=" stroke:none;fill-rule:nonzero;fill:rgb(52.941176%,47.45098%,43.529412%);fill-opacity:1;" d="M 63.207031 159.230469 C 71.179688 151.933594 72.679688 140.597656 66.5625 133.917969 C 60.445312 127.234375 49.023438 127.734375 41.054688 135.035156 C 33.082031 142.332031 31.578125 153.664062 37.695312 160.347656 C 43.8125 167.027344 55.234375 166.527344 63.207031 159.230469 Z M 63.207031 159.230469 "/>
<path style=" stroke:none;fill-rule:nonzero;fill:rgb(22.745098%,19.215686%,16.470588%);fill-opacity:1;" d="M 67.742188 133.699219 C 64.757812 130.140625 60.335938 128.179688 55.292969 128.179688 C 44.9375 128.179688 35.023438 136.601562 33.195312 146.949219 C 32.285156 152.09375 33.460938 156.921875 36.507812 160.558594 C 39.492188 164.117188 43.914062 166.074219 48.957031 166.074219 C 59.3125 166.074219 69.226562 157.65625 71.054688 147.308594 C 71.964844 142.164062 70.789062 137.332031 67.742188 133.699219 Z M 69.027344 146.949219 C 67.363281 156.355469 58.359375 164.011719 48.957031 164.011719 C 44.535156 164.011719 40.675781 162.316406 38.089844 159.230469 C 35.441406 156.074219 34.421875 151.839844 35.226562 147.308594 C 36.886719 137.898438 45.890625 130.242188 55.292969 130.242188 C 59.714844 130.242188 63.574219 131.941406 66.160156 135.023438 C 68.808594 138.179688 69.828125 142.417969 69.027344 146.949219 Z M 69.027344 146.949219 "/>
<path style=" stroke:none;fill-rule:nonzero;fill:rgb(98.823529%,90.980392%,79.607843%);fill-opacity:1;" d="M 57.039062 152.484375 C 60.570312 149.253906 61.234375 144.234375 58.523438 141.273438 C 55.816406 138.316406 50.757812 138.539062 47.226562 141.769531 C 43.695312 145 43.03125 150.019531 45.738281 152.980469 C 48.449219 155.9375 53.507812 155.71875 57.039062 152.484375 Z M 57.039062 152.484375 "/>
<path style=" stroke:none;fill-rule:nonzero;fill:rgb(22.745098%,19.215686%,16.470588%);fill-opacity:1;" d="M 59.480469 140.8125 C 58.046875 139.101562 55.933594 138.160156 53.527344 138.160156 C 48.675781 138.160156 44.03125 142.101562 43.175781 146.949219 C 42.742188 149.394531 43.308594 151.703125 44.769531 153.445312 C 46.203125 155.152344 48.316406 156.09375 50.722656 156.09375 C 55.574219 156.09375 60.21875 152.152344 61.074219 147.308594 C 61.507812 144.859375 60.941406 142.554688 59.480469 140.8125 Z M 59.042969 146.949219 C 58.355469 150.855469 54.621094 154.03125 50.722656 154.03125 C 48.9375 154.03125 47.382812 153.351562 46.347656 152.117188 C 45.285156 150.855469 44.878906 149.144531 45.207031 147.308594 C 45.894531 143.402344 49.628906 140.222656 53.527344 140.222656 C 55.3125 140.222656 56.867188 140.902344 57.902344 142.136719 C 58.960938 143.402344 59.367188 145.109375 59.042969 146.949219 Z M 59.042969 146.949219 "/>
<path style=" stroke:none;fill-rule:nonzero;fill:rgb(52.941176%,47.45098%,43.529412%);fill-opacity:1;" d="M 136.617188 159.226562 C 144.589844 151.929688 146.09375 140.597656 139.976562 133.914062 C 133.859375 127.234375 122.4375 127.734375 114.464844 135.03125 C 106.492188 142.332031 104.988281 153.664062 111.105469 160.34375 C 117.226562 167.027344 128.644531 166.527344 136.617188 159.226562 Z M 136.617188 159.226562 "/>
<path style=" stroke:none;fill-rule:nonzero;fill:rgb(22.745098%,19.215686%,16.470588%);fill-opacity:1;" d="M 141.148438 133.699219 C 138.164062 130.140625 133.742188 128.179688 128.699219 128.179688 C 118.34375 128.179688 108.433594 136.601562 106.601562 146.949219 C 105.695312 152.09375 106.871094 156.921875 109.917969 160.558594 C 112.902344 164.117188 117.324219 166.074219 122.367188 166.074219 C 132.722656 166.074219 142.636719 157.65625 144.464844 147.308594 C 145.375 142.164062 144.195312 137.332031 141.148438 133.699219 Z M 142.433594 146.949219 C 140.769531 156.355469 131.769531 164.011719 122.367188 164.011719 C 117.945312 164.011719 114.082031 162.316406 111.496094 159.230469 C 108.847656 156.074219 107.832031 151.839844 108.632812 147.308594 C 110.296875 137.898438 119.296875 130.242188 128.699219 130.242188 C 133.125 130.242188 136.984375 131.941406 139.570312 135.023438 C 142.21875 138.183594 143.234375 142.417969 142.433594 146.949219 Z M 142.433594 146.949219 "/>
<path style=" stroke:none;fill-rule:nonzero;fill:rgb(98.823529%,90.980392%,79.607843%);fill-opacity:1;" d="M 130.445312 152.484375 C 133.976562 149.253906 134.644531 144.234375 131.933594 141.273438 C 129.222656 138.316406 124.167969 138.539062 120.636719 141.769531 C 117.105469 145.003906 116.441406 150.019531 119.148438 152.980469 C 121.859375 155.941406 126.917969 155.71875 130.445312 152.484375 Z M 130.445312 152.484375 "/>
<path style=" stroke:none;fill-rule:nonzero;fill:rgb(22.745098%,19.215686%,16.470588%);fill-opacity:1;" d="M 132.890625 140.8125 C 131.457031 139.101562 129.34375 138.160156 126.933594 138.160156 C 122.082031 138.160156 117.441406 142.101562 116.582031 146.949219 C 116.152344 149.394531 116.714844 151.703125 118.175781 153.445312 C 119.609375 155.152344 121.726562 156.09375 124.132812 156.09375 C 128.984375 156.09375 133.628906 152.152344 134.484375 147.308594 C 134.917969 144.859375 134.351562 142.554688 132.890625 140.8125 Z M 132.453125 146.949219 C 131.761719 150.855469 128.03125 154.03125 124.132812 154.03125 C 122.34375 154.03125 120.792969 153.351562 119.757812 152.117188 C 118.695312 150.855469 118.289062 149.144531 118.613281 147.308594 C 119.304688 143.402344 123.039062 140.222656 126.933594 140.222656 C 128.722656 140.222656 130.273438 140.902344 131.308594 142.136719 C 132.371094 143.402344 132.777344 145.109375 132.453125 146.949219 Z M 132.453125 146.949219 "/>
<path style=" stroke:none;fill-rule:nonzero;fill:rgb(54.117647%,77.647059%,86.666667%);fill-opacity:1;" d="M 158.8125 81.707031 L 130.90625 81.707031 C 128.90625 81.707031 127.035156 83.101562 126.734375 84.824219 L 122.796875 107.085938 C 122.496094 108.808594 123.871094 110.203125 125.871094 110.203125 L 165.324219 110.203125 C 167.082031 99.191406 164.5 89.1875 158.8125 81.707031 Z M 158.8125 81.707031 "/>
<path style=" stroke:none;fill-rule:nonzero;fill:rgb(22.745098%,19.215686%,16.470588%);fill-opacity:1;" d="M 159.636719 81.082031 C 159.441406 80.824219 159.136719 80.675781 158.816406 80.675781 L 130.90625 80.675781 C 128.390625 80.675781 126.109375 82.417969 125.714844 84.644531 L 121.78125 106.90625 C 121.59375 107.96875 121.863281 108.992188 122.539062 109.800781 C 123.304688 110.710938 124.519531 111.234375 125.871094 111.234375 L 165.324219 111.234375 C 165.832031 111.234375 166.261719 110.867188 166.34375 110.367188 C 168.082031 99.464844 165.703125 89.0625 159.636719 81.082031 Z M 164.4375 109.171875 L 125.871094 109.171875 C 125.128906 109.171875 124.492188 108.917969 124.121094 108.472656 C 123.835938 108.136719 123.734375 107.722656 123.8125 107.265625 L 127.746094 85.003906 C 127.964844 83.773438 129.410156 82.738281 130.90625 82.738281 L 158.296875 82.738281 C 163.636719 90 165.804688 99.335938 164.4375 109.171875 Z M 164.4375 109.171875 "/>
<path style=" stroke:none;fill-rule:nonzero;fill:rgb(22.745098%,19.215686%,16.470588%);fill-opacity:1;" d="M 78.878906 71.769531 L 38.542969 71.769531 C 37.972656 71.769531 37.511719 72.230469 37.511719 72.800781 C 37.511719 73.371094 37.972656 73.832031 38.542969 73.832031 L 78.882812 73.832031 C 79.449219 73.832031 79.914062 73.371094 79.914062 72.800781 C 79.910156 72.230469 79.449219 71.769531 78.878906 71.769531 Z M 78.878906 71.769531 "/>
<path style=" stroke:none;fill-rule:nonzero;fill:rgb(22.745098%,19.215686%,16.470588%);fill-opacity:1;" d="M 62.171875 82.597656 L 17.425781 82.597656 C 16.855469 82.597656 16.394531 83.058594 16.394531 83.628906 C 16.394531 84.199219 16.855469 84.660156 17.425781 84.660156 L 62.171875 84.660156 C 62.738281 84.660156 63.199219 84.199219 63.199219 83.628906 C 63.199219 83.058594 62.738281 82.597656 62.171875 82.597656 Z M 62.171875 82.597656 "/>
<path style=" stroke:none;fill-rule:nonzero;fill:rgb(22.745098%,19.215686%,16.470588%);fill-opacity:1;" d="M 71.585938 93.425781 L 31.246094 93.425781 C 30.675781 93.425781 30.214844 93.890625 30.214844 94.457031 C 30.214844 95.027344 30.675781 95.488281 31.246094 95.488281 L 71.585938 95.488281 C 72.15625 95.488281 72.617188 95.027344 72.617188 94.457031 C 72.617188 93.890625 72.15625 93.425781 71.585938 93.425781 Z M 71.585938 93.425781 "/>
<path style=" stroke:none;fill-rule:nonzero;fill:rgb(22.745098%,19.215686%,16.470588%);fill-opacity:1;" d="M 54.875 104.253906 L 10.128906 104.253906 C 9.558594 104.253906 9.097656 104.714844 9.097656 105.285156 C 9.097656 105.855469 9.558594 106.316406 10.128906 106.316406 L 54.875 106.316406 C 55.445312 106.316406 55.90625 105.855469 55.90625 105.285156 C 55.90625 104.714844 55.445312 104.253906 54.875 104.253906 Z M 54.875 104.253906 "/>
<path style=" stroke:none;fill-rule:nonzero;fill:rgb(15.294118%,63.921569%,100%);fill-opacity:1;" d="M 129.9375 69.15625 L 118.792969 69.15625 L 118.773438 69.285156 C 128.253906 70.023438 136.421875 73.988281 142.210938 80.671875 L 156.648438 80.671875 C 150.207031 73.234375 140.808594 69.15625 129.9375 69.15625 Z M 129.9375 69.15625 "/>
<path style=" stroke:none;fill-rule:nonzero;fill:rgb(15.294118%,63.921569%,100%);fill-opacity:1;" d="M 149.660156 111.238281 L 144.671875 139.480469 L 159.109375 139.480469 L 164.097656 111.238281 Z M 149.660156 111.238281 "/>
<path style=" stroke:none;fill-rule:nonzero;fill:rgb(42.352941%,65.098039%,74.509804%);fill-opacity:1;" d="M 158.296875 82.734375 L 143.859375 82.734375 C 149.203125 90 151.367188 99.335938 150 109.175781 L 164.4375 109.175781 C 165.804688 99.335938 163.640625 90 158.296875 82.734375 Z M 158.296875 82.734375 "/>
<path style=" stroke:none;fill-rule:nonzero;fill:rgb(41.568627%,36.078431%,32.156863%);fill-opacity:1;" d="M 161.460938 141.542969 L 146.335938 141.542969 C 147.621094 141.542969 148.664062 142.585938 148.664062 143.871094 C 148.664062 145.164062 147.621094 146.210938 146.335938 146.210938 L 161.460938 146.210938 C 162.746094 146.210938 163.789062 145.164062 163.789062 143.871094 C 163.789062 142.585938 162.746094 141.542969 161.460938 141.542969 Z M 161.460938 141.542969 "/>
</g>
</svg>
