<svg width="176" height="176" viewBox="0 0 176 176" fill="none" xmlns="http://www.w3.org/2000/svg">
<path d="M105.36 51.7029V35.9216C105.36 35.9216 105.36 20.1397 114.829 13.8271C114.829 13.8271 83.2657 20.1397 58.015 13.8271C58.015 13.8271 67.4838 23.2959 67.4838 35.9216V51.7029C45.0379 62.8983 29.608 93.8156 29.608 117.986C29.608 148.491 54.1741 162.174 86.422 162.174C118.673 162.174 146.392 148.49 146.392 117.986C146.392 93.6942 128.807 62.7675 105.36 51.7029Z" fill="#27A3FF"/>
<path d="M39.0767 117.986C39.0767 93.8163 54.5072 62.8983 76.9525 51.7036V35.9222C76.9525 26.7292 71.9435 19.2298 69.2126 15.8207C65.4245 15.3783 61.6546 14.7377 58.0143 13.8284C58.0143 13.8284 67.4831 23.2972 67.4831 35.9228V51.7042C45.0372 62.8995 29.6073 93.8168 29.6073 117.987C29.6073 148.492 54.1734 162.175 86.4213 162.175C88.0211 162.175 89.5963 162.115 91.1709 162.047C61.285 160.751 39.0767 146.979 39.0767 117.986Z" fill="#27A3FF"/>
<path d="M105.359 39.0779H67.4836V51.7029H105.359V39.0779Z" fill="#FFDA88"/>
<path d="M76.9524 39.0779H67.4836V51.7029H76.9524V39.0779Z" fill="#FFE2A9"/>
<path d="M105.36 73.7974H87.7137H70.6405L58.0154 86.4224C58.0154 135.92 87.7137 146.393 87.7137 146.393C87.7137 146.393 117.986 135.92 117.986 86.4224L105.36 73.7974Z" fill="#F948B4"/>
<path d="M100.283 109.904C99.4324 108.402 98.3752 107.229 97.1203 106.367C95.8596 105.52 93.9887 104.566 91.5323 103.523C88.1607 102.17 86.4899 100.557 86.4899 98.706C86.4899 97.7673 86.8102 96.9601 87.4544 96.2743C88.105 95.6113 88.8817 95.2646 89.7788 95.2646C90.9468 95.2646 92.864 96.0508 95.5152 97.6177L98.2092 91.6332C96.5817 89.2783 92.735 87.7846 89.5787 88.0111V85.3236C89.5787 83.9273 89.486 82.7944 86.4224 82.7944C83.3583 82.7944 83.2662 83.9273 83.2662 85.3236V88.4229C83.2662 88.4229 81.7344 88.9409 79.8265 90.9256C77.7363 93.094 77.3268 96.7512 77.3268 99.2569C77.3268 104.284 81.5097 106.451 82.5082 107.208C83.4944 107.963 85.1189 108.845 87.0912 109.697C91.1445 111.431 93.0183 112.801 93.0183 114.768C93.0183 115.714 92.5807 116.626 91.6872 117.493C90.7867 118.361 89.8591 118.726 88.8853 118.799C86.142 118.991 83.8763 117.062 80.7136 114.735L76.4691 120.679C79.3601 124.1 83.2656 125.647 83.2656 125.722V128.246C83.2656 129.649 83.7525 130.776 86.4219 130.776C88.9369 130.776 89.5781 129.649 89.5781 128.246V125.723C89.5781 125.69 94.0661 125.251 96.4456 123.201C98.7882 121.175 101.035 118.04 101.035 114.816C101.035 113.049 101.137 111.422 100.283 109.904Z" fill="#7FD3B9"/>
<path d="M46.6963 29.6092C47.9295 30.8418 47.9295 32.8393 46.6963 34.0725C45.4632 35.3069 43.4656 35.3057 42.233 34.0725L37.7696 29.6092C36.5364 28.3766 36.5364 26.379 37.7696 25.1458C39.0028 23.9115 41.0004 23.9132 42.233 25.1458L46.6963 29.6092Z" fill="#FFDA88"/>
<path d="M42.2329 48.5466C42.2329 50.2896 40.8208 51.7029 39.0767 51.7029H32.7641C31.0194 51.7029 29.6079 50.2896 29.6079 48.5466C29.6079 46.8037 31.02 45.3904 32.7641 45.3904H39.0767C40.8214 45.3904 42.2329 46.8037 42.2329 48.5466Z" fill="#FFDA88"/>
<path d="M122.067 29.6092C120.833 30.8418 120.833 32.8393 122.067 34.0725C123.299 35.3069 125.297 35.3057 126.53 34.0725L130.993 29.6092C132.226 28.3766 132.226 26.379 130.993 25.1458C129.761 23.9115 127.763 23.9132 126.53 25.1458L122.067 29.6092Z" fill="#FFDA88"/>
<path d="M140.08 48.5466C140.08 46.8037 138.667 45.3904 136.923 45.3904H130.611C128.866 45.3904 127.454 46.8037 127.454 48.5466C127.454 50.2896 128.866 51.7029 130.611 51.7029H136.923C138.667 51.7029 140.08 50.2896 140.08 48.5466Z" fill="#FFDA88"/>
<path d="M105.36 54.8592H67.4843C65.7395 54.8592 64.328 53.446 64.328 51.703V39.0779C64.328 37.3349 65.7395 35.9216 67.4843 35.9216H105.36C107.105 35.9216 108.516 37.3349 108.516 39.0779V51.703C108.516 53.446 107.104 54.8592 105.36 54.8592ZM70.6399 48.5467H102.203V42.2342H70.6399V48.5467Z" fill="#161616"/>
<path d="M100.283 109.905C99.4324 108.4 98.3752 107.229 97.1203 106.366C95.8596 105.521 93.9887 104.565 91.5323 103.524C88.1607 102.168 86.4899 100.558 86.4899 98.7062C86.4899 97.7664 86.8102 96.9586 87.4544 96.2745C88.105 95.6116 88.8817 95.2649 89.7788 95.2649C90.9468 95.2649 92.864 96.0522 95.5152 97.618L98.2092 91.6334C96.5817 89.2785 92.735 87.7849 89.5787 88.0113V85.3238C89.5787 83.9275 89.486 82.7947 86.4224 82.7947C83.3583 82.7947 83.2662 83.9275 83.2662 85.3238V88.4232C83.2662 88.4232 81.7344 88.9412 79.8265 90.9259C77.7363 93.0942 77.3268 96.7515 77.3268 99.2571C77.3268 104.284 81.5097 106.451 82.5082 107.209C83.4944 107.962 85.1189 108.843 87.0912 109.697C91.1445 111.432 93.0183 112.801 93.0183 114.767C93.0183 115.714 92.5807 116.626 91.6872 117.492C90.7867 118.361 89.8591 118.726 88.8853 118.799C86.142 118.99 83.8763 117.061 80.7136 114.736L76.4691 120.679C79.3601 124.101 83.2656 125.648 83.2656 125.722V128.247C83.2656 129.649 83.7525 130.777 86.4219 130.777C88.9369 130.777 89.5781 129.649 89.5781 128.247V125.723C89.5781 125.692 94.0661 125.251 96.4456 123.201C98.7882 121.173 101.035 118.042 101.035 114.817C101.035 113.048 101.137 111.42 100.283 109.905Z" fill="white"/>
<path d="M86.4219 165.331C48.8693 165.331 26.4516 147.632 26.4516 117.986C26.4516 102.622 32.3453 84.9259 42.2177 70.6482C43.2039 69.2132 45.1769 68.8571 46.6072 69.8468C48.0433 70.8395 48.4012 72.8042 47.4085 74.2392C38.2383 87.5008 32.7642 103.856 32.7642 117.986C32.7642 155.02 70.2885 159.018 86.4219 159.018C113.888 159.018 143.236 148.239 143.236 117.986C143.236 93.6367 125.275 64.5903 104.013 54.5571C102.91 54.0362 102.204 52.925 102.204 51.703V35.9217C102.204 35.3948 102.272 26.0398 106.661 18.3058C97.0347 19.5525 80.9354 20.8473 65.462 18.5141C68.0545 22.8372 70.6405 28.9063 70.6405 35.9217V51.703C70.6405 52.8992 69.9624 53.9933 68.8929 54.5278C64.1215 56.9073 59.4792 60.3857 55.0933 64.8678C53.8724 66.1086 51.8754 66.1379 50.6299 64.9153C49.3844 63.6945 49.3633 61.6974 50.5806 60.4508C54.9331 56.0062 59.5473 52.4287 64.328 49.7951V35.9217C64.328 24.7327 55.87 16.1451 55.7838 16.0589C54.7788 15.0557 54.5694 13.5069 55.2693 12.2719C55.9692 11.0388 57.4118 10.4228 58.7799 10.7648C83.0626 16.8339 113.898 10.7894 114.21 10.7325C115.714 10.4304 117.169 11.2289 117.745 12.6187C118.321 14.012 117.834 15.6177 116.58 16.4531C109.965 20.8625 108.517 32.0021 108.517 35.9211V49.7453C131.305 61.583 149.549 91.7007 149.549 117.986C149.548 147.19 125.361 165.331 86.4219 165.331Z" fill="#161616"/>
<path d="M87.7131 149.55C87.3588 149.55 87.0044 149.489 86.6618 149.37C85.3641 148.912 54.858 137.566 54.858 86.4232C54.858 85.5866 55.1907 84.7834 55.7826 84.1915L68.4077 71.5664C68.9996 70.9745 69.801 70.6418 70.6394 70.6418H105.359C106.197 70.6418 106.999 70.9745 107.591 71.5664L120.216 84.1915C120.808 84.7834 121.14 85.586 121.14 86.4232C121.14 99.6895 118.992 111.48 114.76 121.465C114.076 123.072 112.223 123.81 110.62 123.14C109.017 122.459 108.265 120.606 108.946 119.003C112.713 110.122 114.686 99.605 114.821 87.7244L104.052 76.955H71.9459L61.1758 87.7244C61.62 128.154 82.737 140.591 87.7178 142.963C90.2698 141.768 97.0757 137.986 103.161 129.449C104.171 128.031 106.138 127.693 107.562 128.711C108.983 129.723 109.313 131.693 108.302 133.114C99.4248 145.568 89.1763 149.226 88.7445 149.376C88.413 149.491 88.0616 149.55 87.7131 149.55Z" fill="#161616"/>
<path d="M46.6963 29.6092C47.9295 30.8418 47.9295 32.8393 46.6963 34.0725C45.4632 35.3069 43.4656 35.3057 42.233 34.0725L37.7696 29.6092C36.5364 28.3766 36.5364 26.379 37.7696 25.1458C39.0028 23.9115 41.0004 23.9132 42.233 25.1458L46.6963 29.6092Z" fill="#161616"/>
<path d="M42.2329 48.5466C42.2329 50.2896 40.8208 51.7029 39.0767 51.7029H32.7641C31.0194 51.7029 29.6079 50.2896 29.6079 48.5466C29.6079 46.8037 31.02 45.3904 32.7641 45.3904H39.0767C40.8214 45.3904 42.2329 46.8037 42.2329 48.5466Z" fill="#161616"/>
<path d="M122.067 29.6092C120.833 30.8418 120.833 32.8393 122.067 34.0725C123.299 35.3069 125.297 35.3057 126.53 34.0725L130.993 29.6092C132.226 28.3766 132.226 26.379 130.993 25.1458C129.761 23.9115 127.763 23.9132 126.53 25.1458L122.067 29.6092Z" fill="#161616"/>
<path d="M140.08 48.5466C140.08 46.8037 138.667 45.3904 136.923 45.3904H130.611C128.866 45.3904 127.455 46.8037 127.455 48.5466C127.455 50.2896 128.866 51.7029 130.611 51.7029H136.923C138.667 51.7029 140.08 50.2896 140.08 48.5466Z" fill="#161616"/>
</svg>
